<svg width="34" height="17" viewBox="0 0 34 17" fill="none" xmlns="http://www.w3.org/2000/svg">
<path fill-rule="evenodd" clip-rule="evenodd" d="M0.582972 11.1508L0.57516 11.1455C0.419886 11.0388 0.317347 10.8838 0.273402 10.7147C-0.097692 10.3229 -0.090856 9.7041 0.292933 9.32007L0.744105 8.86633C3.84957 5.73279 10.0019 -0.47412 19.0556 0.0288098C22.6269 0.227174 26.207 2.39038 28.7978 4.36792C30.1142 5.3728 31.2197 6.36426 31.9961 7.10425C32.3847 7.47473 32.6923 7.78345 32.9033 8.00098L33.1474 8.25562L33.2129 8.32495L33.2304 8.344L33.2373 8.35205C33.5947 8.7417 33.617 9.20678 33.5 9.5C33.4687 9.5785 33.1191 9.97534 33.0107 10.0768L33.0078 10.0792L32.9843 10.1006L32.9638 10.119L32.9179 10.1604L32.6679 10.3778C32.5468 10.4806 32.3945 10.6068 32.2138 10.7523C32.0683 10.8694 31.9043 10.9989 31.7216 11.1386C30.9023 11.7648 29.7168 12.5974 28.2441 13.4302C25.3056 15.0911 21.1757 16.7772 16.5 16.7772C12.5879 16.7772 8.59371 15.3489 5.6191 13.9565C4.78805 13.5671 4.03024 13.1779 3.3691 12.8186C2.84176 12.532 2.37594 12.2644 1.98336 12.0313C1.54196 11.7684 1.19235 11.5488 0.952113 11.394L0.675746 11.213L0.602503 11.1639L0.582972 11.1508ZM11.9355 3.16773C7.50875 4.90064 4.24801 8.17969 2.10739 10.3326L2.09664 10.3435C2.28024 10.4585 2.49996 10.5928 2.75094 10.7419C3.60153 11.2478 4.81344 11.9231 6.25582 12.5979C9.15621 13.9556 12.9121 15.2772 16.5 15.2772C20.8242 15.2772 24.6943 13.7134 27.5058 12.1243C28.9082 11.332 30.0351 10.5397 30.8095 9.94702C31.0791 9.74133 31.3056 9.55994 31.4853 9.41138L31.4697 9.39563C31.3388 9.2605 31.165 9.08533 30.9541 8.87879L30.6162 8.55188C29.8779 7.84839 28.8291 6.90759 27.5839 5.95776C25.7197 4.53442 23.5078 3.16284 21.2978 2.474C22.9423 3.75488 24 5.75391 24 8C24 11.866 20.8662 15 17 15C13.1338 15 9.99996 11.866 9.99996 8C9.99996 6.1261 10.7363 4.4242 11.9355 3.16773ZM17 6.5C17 7.88074 15.8808 9 14.5 9C13.1191 9 12 7.88074 12 6.5C12 5.11926 13.1191 4 14.5 4C15.8808 4 17 5.11926 17 6.5Z" fill="#6A788E"/>
</svg>
